<svg xmlns="http://www.w3.org/2000/svg">
    <symbol id="facebook" viewBox="0 0 25 25">
        <g>
            <path fill-rule="evenodd"  fill="rgb(188, 188, 196)"
            d="M12.500,25.000 C5.596,25.000 -0.000,19.403 -0.000,12.500 C-0.000,5.596 5.596,-0.000 12.500,-0.000 C19.404,-0.000 25.000,5.596 25.000,12.500 C25.000,19.403 19.404,25.000 12.500,25.000 ZM12.500,1.953 C6.675,1.953 1.953,6.675 1.953,12.500 C1.953,18.325 6.675,23.046 12.500,23.046 C18.325,23.046 23.047,18.325 23.047,12.500 C23.047,6.675 18.325,1.953 12.500,1.953 ZM15.466,10.586 L15.131,12.793 L13.292,12.793 C13.292,15.593 13.292,18.750 13.292,18.750 L11.127,18.750 C11.127,18.750 11.127,15.626 11.127,12.793 L9.534,12.793 L9.534,10.586 L11.127,10.586 L11.127,8.870 C11.127,7.847 11.629,6.250 13.825,6.250 L15.435,6.258 L15.435,8.400 C15.435,8.400 14.264,8.400 14.030,8.400 C13.795,8.400 13.292,8.513 13.292,8.999 L13.292,10.586 L15.466,10.586 Z"/>
        </g>
    </symbol>
    <symbol id="twitter" viewBox="0 0 25 25">
        <g>
            <path fill-rule="evenodd"  fill="rgb(188, 188, 196)"
            d="M12.500,25.000 C5.596,25.000 -0.000,19.403 -0.000,12.500 C-0.000,5.596 5.596,-0.000 12.500,-0.000 C19.404,-0.000 25.000,5.596 25.000,12.500 C25.000,19.403 19.404,25.000 12.500,25.000 ZM12.500,1.953 C6.675,1.953 1.953,6.675 1.953,12.500 C1.953,18.325 6.675,23.046 12.500,23.046 C18.325,23.046 23.047,18.325 23.047,12.500 C23.047,6.675 18.325,1.953 12.500,1.953 ZM17.499,9.766 C17.499,9.781 17.501,9.794 17.501,9.808 C17.501,9.819 17.499,9.831 17.499,9.843 C17.499,9.847 17.501,9.853 17.501,9.858 C17.675,14.338 14.444,17.968 10.284,17.968 C8.820,17.968 7.436,17.518 6.250,16.740 C7.996,17.038 9.408,16.103 9.821,15.588 C8.661,15.588 7.599,14.520 7.516,13.702 C7.751,13.741 8.286,13.791 8.590,13.615 C7.015,13.150 6.583,11.869 6.601,10.902 C6.864,11.178 7.424,11.240 7.727,11.214 C6.840,10.624 6.164,9.004 6.945,7.546 C8.218,9.331 10.476,10.373 12.408,10.427 L12.408,10.427 C12.366,10.228 12.342,10.021 12.342,9.808 C12.342,8.274 13.497,7.031 14.921,7.031 C15.655,7.031 16.315,7.360 16.785,7.890 C16.785,7.889 16.785,7.888 16.785,7.888 C17.197,7.888 18.031,7.524 18.394,7.274 C18.256,7.845 17.696,8.563 17.319,8.783 C17.908,8.720 18.539,8.471 18.750,8.345 C18.386,8.995 17.878,9.488 17.499,9.766 Z"/>
        </g>
    </symbol>
    <symbol id="skype" viewBox="0 0 25 25">
        <g>
            <path fill-rule="evenodd"  fill="rgb(188, 188, 196)"
            d="M12.500,25.000 C5.596,25.000 -0.000,19.403 -0.000,12.500 C-0.000,5.596 5.596,-0.000 12.500,-0.000 C19.404,-0.000 25.000,5.596 25.000,12.500 C25.000,19.403 19.404,25.000 12.500,25.000 ZM12.500,1.953 C6.675,1.953 1.953,6.675 1.953,12.500 C1.953,18.325 6.675,23.046 12.500,23.046 C18.325,23.046 23.047,18.325 23.047,12.500 C23.047,6.675 18.325,1.953 12.500,1.953 ZM15.572,18.750 C14.774,18.750 14.046,18.453 13.487,17.966 C13.116,18.045 12.730,18.087 12.334,18.087 C9.257,18.087 6.763,15.593 6.763,12.514 C6.763,12.109 6.808,11.715 6.890,11.334 C6.490,10.803 6.250,10.144 6.250,9.427 C6.250,7.672 7.674,6.250 9.428,6.250 C10.215,6.250 10.934,6.538 11.491,7.013 C11.766,6.970 12.047,6.942 12.334,6.942 C15.412,6.942 17.907,9.437 17.907,12.514 C17.907,12.797 17.879,13.073 17.837,13.347 C18.402,13.920 18.750,14.705 18.750,15.572 C18.750,17.327 17.327,18.750 15.572,18.750 ZM15.073,13.058 C14.947,12.832 14.771,12.646 14.545,12.498 C14.319,12.352 14.045,12.226 13.723,12.124 C13.401,12.021 13.042,11.926 12.645,11.841 C12.328,11.767 12.100,11.711 11.963,11.674 C11.825,11.634 11.688,11.581 11.555,11.513 C11.420,11.445 11.314,11.365 11.237,11.271 C11.160,11.177 11.122,11.065 11.122,10.935 C11.122,10.726 11.234,10.547 11.461,10.398 C11.687,10.250 11.983,10.176 12.351,10.176 C12.749,10.176 13.037,10.244 13.216,10.381 C13.396,10.518 13.550,10.709 13.678,10.953 C13.777,11.124 13.869,11.247 13.954,11.322 C14.039,11.397 14.163,11.435 14.326,11.435 C14.506,11.435 14.656,11.371 14.777,11.247 C14.896,11.122 14.956,10.980 14.956,10.824 C14.956,10.654 14.908,10.479 14.812,10.299 C14.716,10.120 14.563,9.948 14.355,9.784 C14.147,9.621 13.885,9.490 13.570,9.391 C13.254,9.293 12.880,9.244 12.448,9.244 C11.906,9.244 11.437,9.318 11.036,9.467 C10.635,9.615 10.329,9.829 10.118,10.105 C9.906,10.382 9.801,10.698 9.801,11.055 C9.801,11.428 9.901,11.740 10.101,11.993 C10.300,12.245 10.572,12.443 10.913,12.590 C11.254,12.735 11.678,12.862 12.183,12.971 C12.563,13.050 12.863,13.126 13.089,13.196 C13.316,13.267 13.499,13.369 13.642,13.504 C13.785,13.637 13.856,13.812 13.856,14.026 C13.856,14.298 13.723,14.524 13.459,14.705 C13.195,14.886 12.852,14.976 12.428,14.976 C12.122,14.976 11.873,14.931 11.684,14.841 C11.495,14.752 11.348,14.638 11.244,14.499 C11.140,14.360 11.043,14.189 10.953,13.982 C10.880,13.809 10.791,13.678 10.687,13.590 C10.584,13.501 10.455,13.457 10.305,13.457 C10.120,13.457 9.966,13.514 9.846,13.627 C9.726,13.740 9.666,13.876 9.666,14.036 C9.666,14.309 9.766,14.592 9.966,14.881 C10.167,15.171 10.427,15.403 10.747,15.577 C11.198,15.818 11.772,15.939 12.468,15.939 C13.047,15.939 13.548,15.851 13.971,15.673 C14.394,15.497 14.716,15.253 14.934,14.941 C15.153,14.629 15.263,14.276 15.263,13.886 C15.263,13.559 15.200,13.283 15.073,13.058 Z"/>
        </g>
    </symbol>
</svg>
